<?xml version="1.0" encoding="UTF-8"?> <svg xmlns="http://www.w3.org/2000/svg" xmlns:xlink="http://www.w3.org/1999/xlink" viewBox="0 0 1280 762.22"><defs><style>.cls-1,.cls-2,.cls-3,.cls-4,.cls-5,.cls-6,.cls-7,.cls-8,.cls-9{stroke:#29abe2;stroke-miterlimit:10;stroke-width:5px;}.cls-1{fill:url(#linear-gradient);}.cls-2{fill:url(#linear-gradient-2);}.cls-3{fill:url(#linear-gradient-3);}.cls-4{fill:url(#linear-gradient-4);}.cls-5{fill:url(#linear-gradient-5);}.cls-6{fill:url(#linear-gradient-6);}.cls-7{fill:url(#linear-gradient-7);}.cls-8{fill:url(#linear-gradient-8);}.cls-9{fill:url(#linear-gradient-9);}.cls-10{fill:url(#linear-gradient-10);}.cls-11{fill:url(#linear-gradient-11);}.cls-12{fill:url(#linear-gradient-12);}.cls-13{fill:url(#linear-gradient-13);}.cls-14{fill:url(#linear-gradient-14);}.cls-15{fill:url(#linear-gradient-15);}.cls-16{fill:url(#linear-gradient-16);}.cls-17{fill:url(#linear-gradient-17);}.cls-18{fill:url(#linear-gradient-18);}.cls-19{fill:url(#linear-gradient-19);}.cls-20{fill:url(#linear-gradient-20);}</style><linearGradient id="linear-gradient" x1="617.11" y1="15.55" x2="699.63" y2="98.08" gradientUnits="userSpaceOnUse"><stop offset="0" stop-color="#5efce8"></stop><stop offset="1" stop-color="#0396ff"></stop></linearGradient><linearGradient id="linear-gradient-2" x1="707.79" y1="84.4" x2="777.88" y2="154.5" xlink:href="#linear-gradient"></linearGradient><linearGradient id="linear-gradient-3" x1="747.08" y1="35.35" x2="767.22" y2="55.49" xlink:href="#linear-gradient"></linearGradient><linearGradient id="linear-gradient-4" x1="796.09" y1="100.9" x2="856.68" y2="100.9" xlink:href="#linear-gradient"></linearGradient><linearGradient id="linear-gradient-5" x1="791.99" y1="179.15" x2="821.59" y2="179.15" xlink:href="#linear-gradient"></linearGradient><linearGradient id="linear-gradient-6" x1="843.65" y1="154.81" x2="887.56" y2="154.81" xlink:href="#linear-gradient"></linearGradient><linearGradient id="linear-gradient-7" x1="608.55" y1="114.49" x2="671.1" y2="177.03" xlink:href="#linear-gradient"></linearGradient><linearGradient id="linear-gradient-8" x1="600.41" y1="399.49" x2="747.25" y2="546.33" gradientUnits="userSpaceOnUse"><stop offset="0" stop-color="#3ac2ee"></stop><stop offset="1" stop-color="#4c83ff"></stop></linearGradient><linearGradient id="linear-gradient-9" x1="491.99" y1="230.32" x2="788.01" y2="526.34" gradientUnits="userSpaceOnUse"><stop offset="0" stop-color="#2afadf"></stop><stop offset="1" stop-color="#4c83ff"></stop></linearGradient><linearGradient id="linear-gradient-10" x1="133.8" y1="640.14" x2="236.67" y2="699.54" xlink:href="#linear-gradient-9"></linearGradient><linearGradient id="linear-gradient-11" x1="200.31" y1="646.25" x2="282.83" y2="693.89" xlink:href="#linear-gradient-9"></linearGradient><linearGradient id="linear-gradient-12" x1="274.39" y1="665.79" x2="364.97" y2="718.09" xlink:href="#linear-gradient-9"></linearGradient><linearGradient id="linear-gradient-13" x1="376.28" y1="659.8" x2="481.92" y2="720.8" xlink:href="#linear-gradient-9"></linearGradient><linearGradient id="linear-gradient-14" x1="477.49" y1="650.6" x2="582.84" y2="711.43" xlink:href="#linear-gradient-9"></linearGradient><linearGradient id="linear-gradient-15" x1="607.6" y1="642.75" x2="697.36" y2="694.57" xlink:href="#linear-gradient-9"></linearGradient><linearGradient id="linear-gradient-16" x1="701.74" y1="646.25" x2="784.26" y2="693.89" xlink:href="#linear-gradient-9"></linearGradient><linearGradient id="linear-gradient-17" x1="779.48" y1="659.8" x2="885.13" y2="720.8" xlink:href="#linear-gradient-9"></linearGradient><linearGradient id="linear-gradient-18" x1="880.69" y1="650.6" x2="986.05" y2="711.43" xlink:href="#linear-gradient-9"></linearGradient><linearGradient id="linear-gradient-19" x1="987.72" y1="665.79" x2="1078.31" y2="718.09" xlink:href="#linear-gradient-9"></linearGradient><linearGradient id="linear-gradient-20" x1="1069.33" y1="651.8" x2="1163.11" y2="705.94" xlink:href="#linear-gradient-9"></linearGradient></defs><g id="body"><path class="cls-1" d="M611.68,32.41,579.43,53.23s32.25,15,32.25,41.63v18.47h61.86V98.08l63.62-37.52V32.41Z"></path><path class="cls-2" d="M688.73,103.46l48.43-27.81s1.86,42.08,35.28,84.29c0,0-44-17.39-51-56.48Z"></path><path class="cls-3" d="M750,32.41V58.7h9.78s9.87-.39,9.87-9.87V41s0-8.6-9.83-8.6Z"></path><polygon class="cls-4" points="826.19 70.81 820.71 94.65 796.09 101.1 820.71 106.96 826.19 131 832.25 106.96 856.68 100.9 830.88 95.43 826.19 70.81"></polygon><polygon class="cls-5" points="806.69 164.44 804.02 176.1 791.99 179.25 804.02 182.11 806.69 193.86 809.65 182.11 821.59 179.15 808.99 176.48 806.69 164.44"></polygon><polygon class="cls-6" points="865.47 133 861.5 150.28 843.65 154.95 861.5 159.2 865.47 176.62 869.86 159.2 887.56 154.81 868.86 150.84 865.47 133"></polygon><path class="cls-7" d="M639.91,161.42a216.51,216.51,0,0,1,42.43,4.18h.19V125.92H597.12V165.6h.37A216.4,216.4,0,0,1,639.91,161.42Z"></path><path class="cls-8" d="M493.35,506.55a194.91,194.91,0,0,0,146.56,66.19c94.71,0,173.68-67.39,191.59-156.83C780.22,434,723.7,451.54,663.91,467.56S546.69,496.59,493.35,506.55Z"></path><path class="cls-9" d="M1026.86,274.67c-6.58-24.53-86.83-26.06-201.55-8.06a215.52,215.52,0,0,1,17.11,35.67c56.75-9.67,93.07-11.68,95.21-3.7,2.39,8.92-38.42,28.38-104.21,51.6a194.15,194.15,0,0,0-5.93-27.72c-.13-.44-.27-.88-.4-1.32-.35-1.18-.72-2.35-1.09-3.52-.18-.54-.35-1.09-.53-1.63q-.72-2.21-1.5-4.38c-.19-.53-.39-1.05-.58-1.57-.37-1-.76-2.05-1.15-3.06a194.23,194.23,0,0,0-18.9-36.76h0q-1.61-2.45-3.28-4.83l-.15-.22q-3.35-4.77-7-9.31l-.17-.21q-3.62-4.54-7.5-8.86l-.17-.19q-3.9-4.32-8-8.4l-.17-.17c-2.77-2.72-5.62-5.37-8.55-7.92l-.15-.13q-2.21-1.93-4.47-3.79h0c-1.5-1.24-3-2.45-4.57-3.64l-.11-.08c-1.52-1.18-3.07-2.33-4.64-3.47l-.25-.18q-2.34-1.68-4.72-3.3h0q-2.37-1.62-4.8-3.16l-.45-.28q-4.77-3-9.73-5.77l-.62-.34q-4.89-2.69-10-5.1l-.77-.36q-5-2.35-10.18-4.45l-.86-.34q-2.58-1-5.19-2l-.3-.1q-2.46-.9-5-1.72l-.92-.31c-1.74-.57-3.48-1.11-5.24-1.63l-.67-.2c-1.59-.46-3.2-.91-4.81-1.33l-.94-.25q-2.64-.69-5.3-1.3l-1-.21c-1.59-.35-3.19-.69-4.79-1l-.89-.18q-2.68-.51-5.38-.95l-1.14-.18c-1.63-.26-3.26-.5-4.9-.71l-.77-.11q-2.71-.34-5.46-.61c-.43,0-.85-.09-1.28-.12q-2.56-.24-5.16-.42l-.5,0c-1.85-.11-3.72-.2-5.58-.26l-1.35-.05c-1.88-.05-3.78-.09-5.68-.09-1.66,0-3.31,0-5,.06l-1.65.07c-1.09,0-2.19.07-3.27.12-.66,0-1.31.08-2,.12-1,.06-2,.11-2.93.19-.7.05-1.39.12-2.09.18-.92.07-1.85.15-2.77.24l-2.16.24c-.89.1-1.78.19-2.67.3l-2.19.3c-.87.12-1.74.23-2.6.36l-2.21.36c-.85.14-1.7.27-2.54.42l-2.23.41c-.83.16-1.66.31-2.48.48l-2.24.47c-.81.17-1.62.34-2.43.53l-2.24.52-2.39.59c-.75.18-1.49.38-2.23.58l-2.35.63-2.23.64-2.31.69-2.22.7-2.28.73-2.21.75-2.22.79q-1.11.39-2.22.81l-2.17.82-2.21.88-2.13.86-2.2.93-2.08.91c-.74.33-1.47.65-2.2,1l-2,.94-2.21,1-2,1-2.2,1.12-1.9,1c-.74.39-1.48.78-2.21,1.19l-1.82,1-2.23,1.27c-.58.33-1.16.68-1.73,1l-2.26,1.36-1.62,1L534.16,213l-1.47,1c-.8.53-1.61,1.05-2.4,1.59l-1.26.88-2.54,1.76-.94.69c-.93.68-1.87,1.35-2.79,2l-.24.19a196.52,196.52,0,0,0-16.8,14.19l-.29.27c-.92.87-1.83,1.76-2.73,2.65l-.56.54c-.85.85-1.7,1.72-2.53,2.58l-.68.69c-.81.85-1.61,1.71-2.41,2.57l-.72.78c-.78.84-1.54,1.7-2.3,2.56l-.76.85c-.74.86-1.48,1.72-2.21,2.59-.25.3-.51.59-.76.9-.72.86-1.43,1.74-2.14,2.61l-.75.94c-.7.88-1.39,1.76-2.07,2.65l-.74,1c-.68.89-1.34,1.79-2,2.7-.23.33-.47.65-.71,1q-1,1.37-2,2.76c-.23.32-.46.65-.68,1-.64.93-1.28,1.88-1.9,2.82l-.65,1c-.62,1-1.24,1.92-1.85,2.89l-.6,1c-.61,1-1.21,2-1.81,3l-.55.94c-.6,1-1.18,2-1.76,3.05l-.51.92c-.58,1-1.15,2.08-1.71,3.13l-.47.88c-.56,1.08-1.12,2.16-1.67,3.24-.13.27-.26.54-.4.81-.55,1.12-1.1,2.24-1.63,3.36-.12.25-.23.49-.34.74-.55,1.16-1.08,2.32-1.6,3.49-.09.21-.18.42-.28.63-.53,1.21-1.05,2.43-1.56,3.65-.07.16-.13.33-.2.49-.53,1.27-1,2.56-1.55,3.85l-.1.28c-.53,1.36-1,2.73-1.54,4.1h0a194.69,194.69,0,0,0-11.21,55.15c-.2,3.68-.32,7.38-.32,11.1a196.49,196.49,0,0,0,2.29,29.9c.14.91.3,1.8.45,2.7.18,1.07.35,2.13.55,3.19.16.87.34,1.74.51,2.61q.31,1.61.66,3.21c.19.86.39,1.71.58,2.57.25,1.05.5,2.1.76,3.15a192.86,192.86,0,0,0,8.41,25.93c-68.75,12.84-114,16.41-116.35,7.48-2.14-8,30.46-24.47,84.65-44.53a217.11,217.11,0,0,1-3-36.21c0-1.09,0-2.17,0-3.25C315.46,415.91,246.56,457.43,253.14,482c7.57,28.26,112.86,26,256-1.46h0q10.65-2,21.55-4.27l.27-.05q10.83-2.22,21.93-4.61l.33-.07q5.41-1.17,10.89-2.39l.33-.07,11.22-2.52.12,0,11-2.55.72-.17q11.22-2.62,22.61-5.41l.8-.2,10.93-2.7.68-.18c3.78-.94,7.58-1.91,11.38-2.88l.63-.16,11-2.86,1-.27c3.85-1,7.7-2,11.57-3.06s7.74-2.09,11.59-3.14l1-.27,11-3.05.57-.16q5.7-1.59,11.33-3.2l.7-.2,10.83-3.12.79-.23q5.63-1.63,11.2-3.3l.08,0q5.55-1.65,11-3.31l.72-.22q5.49-1.67,10.93-3.34h0l11-3.42.46-.14L762,415.57l.24-.08q10.83-3.48,21.36-7l.27-.09q10.54-3.52,20.77-7.07l.13-.05C942.27,353.54,1034.42,302.91,1026.86,274.67Z"></path></g><g id="TXT"><path class="cls-10" d="M130.32,673.68c-5.47-39.45,20.61-64.41,54.59-64.41A63.9,63.9,0,0,1,201,611.2L202.78,631a56.28,56.28,0,0,0-17.39-2.74c-20.77,0-37.68,14.81-33.81,43.15,4,28,27.85,45.25,48.79,45.25a49.74,49.74,0,0,0,15.13-2.25l1.61,19a56.93,56.93,0,0,1-16.26,2.09C168.81,735.51,136,713.45,130.32,673.68Z"></path><path class="cls-11" d="M222.59,607.66l19.8-1.13,17.72,126.73h-20Z"></path><path class="cls-12" d="M287.64,650.17l6,45.57c2.57,14.33,17.07,22.54,31.72,22.54,12.24,0,23.35-2.57,29.15-7.73l6.11,15.14c-6.44,5.63-19.48,9.82-36.23,9.82-28.18,0-48.63-17.07-52.33-43.8C269.44,673.84,275.08,658.22,287.64,650.17Zm68.76,34a46,46,0,0,1-.16,11.76l-33.66.48-2.09-15.13,16.42.64A24.45,24.45,0,0,0,317.11,661l-1.29-16.59C340.13,647,353.66,664.82,356.4,684.14Z"></path><path class="cls-13" d="M370.08,690.26c-3.7-26.4,13.05-46.21,38-46.21,13.2,0,22.86,7.73,26.24,12.56l-1.45-10.47h19.33l8.69,60.55c1.13,7.24,3.38,11.75,8.05,11.75,1.45,0,2.74-.32,3.22-1.28l6.12,9.82c-1.93,4.34-7.4,8.21-16.42,8.21-5.8,0-15.3-2.9-18.52-11.76l-6.92-48.95A29.82,29.82,0,0,0,411,660c-14.49,0-24,11.43-21.57,28.34,2.25,15.62,14,28.83,27.85,30.6l1.29,16.26C394.4,734.55,373.46,714.74,370.08,690.26Z"></path><path class="cls-14" d="M480.06,646.14h20l2.09,12.4a30.93,30.93,0,0,1,26.25-14.49c19.81,0,30.92,10.63,34.3,34.46l7.57,54.75H550.43L543,679.8c-1.44-9.83-9.5-16.59-18.19-16.59-9.5,0-16.43,6-20.61,14.49l3.22,20.78h-20Z"></path><path class="cls-15" d="M642.05,731.65l-6.6-50.57a170.41,170.41,0,0,0,19.81,1c23.19,0,37.52-5.63,34.62-26.08-2.58-18.68-20.13-27.22-35.27-27.22a244.39,244.39,0,0,0-27.37,1.61l-1.61-18.84a198.1,198.1,0,0,1,26.89-2.25c26.09,0,52.82,14.33,57,44.76,4.35,30.28-17.87,46.86-42,46.86-2.42,0-6.44,0-9.66-.16l4.66,29.63v0a2.27,2.27,0,0,1-2.17,2.61l-16.26.36a2,2,0,0,1-2-1.68Z"></path><path class="cls-16" d="M724,607.66l19.8-1.13,17.72,126.73h-20Z"></path><path class="cls-17" d="M773.29,690.26c-3.7-26.4,13-46.21,38-46.21,13.2,0,22.87,7.73,26.25,12.56l-1.45-10.47h19.32l8.7,60.55c1.12,7.24,3.38,11.75,8,11.75,1.45,0,2.74-.32,3.22-1.28L881.5,727c-1.93,4.34-7.41,8.21-16.43,8.21-5.79,0-15.29-2.9-18.51-11.76l-6.93-48.95A29.79,29.79,0,0,0,814.19,660c-14.49,0-24,11.43-21.58,28.34,2.26,15.62,14,28.83,27.86,30.6l1.29,16.26C797.6,734.55,776.67,714.74,773.29,690.26Z"></path><path class="cls-18" d="M883.27,646.14h20l2.09,12.4a30.92,30.92,0,0,1,26.25-14.49c19.8,0,30.91,10.63,34.3,34.46l7.56,54.75h-19.8l-7.41-53.46c-1.45-9.83-9.5-16.59-18.2-16.59-9.5,0-16.42,6-20.61,14.49l3.22,20.78h-20Z"></path><path class="cls-19" d="M1001,650.17l6,45.57c2.57,14.33,17.07,22.54,31.72,22.54,12.24,0,23.35-2.57,29.14-7.73l6.12,15.14c-6.44,5.63-19.48,9.82-36.23,9.82-28.18,0-48.63-17.07-52.33-43.8C982.78,673.84,988.42,658.22,1001,650.17Zm68.76,34a46,46,0,0,1-.16,11.76l-33.66.48-2.09-15.13,16.42.64a24.45,24.45,0,0,0-19.8-20.93l-1.29-16.59C1053.47,647,1067,664.82,1069.74,684.14Z"></path><path class="cls-20" d="M1077.14,646.14h13.69l-3.54-25.44,19.8-1.13,3.71,26.57H1133l2.41,16.75h-55.87Zm21.9,58.62-.8-6.28h20l.65,5c1.29,8.69,7.24,13.85,14.17,13.85,5,0,8.53-1.29,11-4l6.44,14.65c-3.38,4-10.15,7.57-19.81,7.57C1113.37,735.51,1102.26,726.66,1099,704.76Z"></path></g></svg> 