<?xml version="1.0" encoding="utf-8"?>
<!-- Generator: Adobe Illustrator 24.0.3, SVG Export Plug-In . SVG Version: 6.00 Build 0)  -->
<svg version="1.1" id="Layer_1" xmlns="http://www.w3.org/2000/svg" xmlns:xlink="http://www.w3.org/1999/xlink" x="0px" y="0px"
	 width="780px" height="440px" viewBox="0 0 780 440" enable-background="new 0 0 780 440" xml:space="preserve">
<g id="Background">
	<rect fill="#FFD943" width="780" height="440"/>
</g>
<g id="Artwork">
	<g>
		
			<circle fill="none" stroke="#002138" stroke-width="1.5" stroke-linecap="round" stroke-linejoin="round" stroke-miterlimit="10" cx="495.5" cy="348.5" r="6.4"/>
		<g>
			
				<line fill="none" stroke="#002138" stroke-width="1.5" stroke-linecap="round" stroke-linejoin="round" stroke-miterlimit="10" x1="569.5" y1="313.6" x2="559.1" y2="303.3"/>
			
				<line fill="none" stroke="#002138" stroke-width="1.5" stroke-linecap="round" stroke-linejoin="round" stroke-miterlimit="10" x1="569.5" y1="303.3" x2="559.1" y2="313.6"/>
		</g>
		
			<polyline fill="none" stroke="#002138" stroke-width="1.5" stroke-linecap="round" stroke-linejoin="round" stroke-miterlimit="10" points="
			516.3,349 563.9,349 563.9,328.5 		"/>
	</g>
	<g>
		
			<ellipse fill="none" stroke="#002138" stroke-width="1.4999" stroke-linecap="round" stroke-linejoin="round" stroke-miterlimit="9.9996" cx="300.2" cy="83.3" rx="6.4" ry="6.4"/>
		<g>
			
				<line fill="none" stroke="#002138" stroke-width="1.5" stroke-linecap="round" stroke-linejoin="round" stroke-miterlimit="10" x1="226.3" y1="118.2" x2="236.6" y2="128.5"/>
			
				<line fill="none" stroke="#002138" stroke-width="1.5" stroke-linecap="round" stroke-linejoin="round" stroke-miterlimit="10" x1="226.3" y1="128.5" x2="236.6" y2="118.2"/>
		</g>
		
			<polyline fill="none" stroke="#002138" stroke-width="1.5" stroke-linecap="round" stroke-linejoin="round" stroke-miterlimit="10" points="
			279.5,82.8 231.9,82.8 231.9,103.3 		"/>
	</g>
	<g>
		<g>
			<g>
				<path fill="#A193F2" d="M505.8,307.7h-92.4l-20.9,43.4l-21.6-43.4h-85.7c-10.6,0-19.1-8.6-19.1-19.1V136.7
					c0-10.6,8.6-19.1,19.1-19.1h220.6c10.6,0,19.1,8.6,19.1,19.1v151.8C524.9,299.1,516.4,307.7,505.8,307.7z"/>
			</g>
			<g>
				<polygon fill="#D8D7F9" points="476.5,279.9 307.2,279.9 362.2,118.1 419.8,118.1 				"/>
				<ellipse fill="#FFFFFF" cx="391.8" cy="280.6" rx="85.2" ry="12"/>
			</g>
			<g>
				
					<circle fill="#FFBC00" stroke="#002138" stroke-width="1.5" stroke-linejoin="round" stroke-miterlimit="10" cx="393.3" cy="211.8" r="35"/>
				
					<path fill="none" stroke="#002138" stroke-width="1.5" stroke-linecap="round" stroke-linejoin="round" stroke-miterlimit="10" d="
					M379.3,219.2c0,7.7,6.3,14,14,14s14-6.3,14-14"/>
				<circle fill="#002138" cx="381" cy="205.4" r="4.9"/>
				<circle fill="#002138" cx="405.5" cy="205.4" r="4.9"/>
			</g>
		</g>
		<g>
			<path fill="none" stroke="#000000" stroke-width="1.5" stroke-miterlimit="10" d="M505.8,307.7h-92.4l-20.9,43.4l-21.6-43.4
				h-85.7c-10.6,0-19.1-8.6-19.1-19.1V136.7c0-10.6,8.6-19.1,19.1-19.1h220.6c10.6,0,19.1,8.6,19.1,19.1v151.8
				C524.9,299.1,516.4,307.7,505.8,307.7z"/>
		</g>
	</g>
	<g>
		
			<circle fill="#FFBC00" stroke="#002138" stroke-width="1.5" stroke-linejoin="round" stroke-miterlimit="10" cx="265.6" cy="247.6" r="35"/>
		
			<path fill="none" stroke="#002138" stroke-width="1.5" stroke-linecap="round" stroke-linejoin="round" stroke-miterlimit="10" d="
			M279.6,269c0-7.7-6.3-14-14-14s-14,6.3-14,14"/>
		
			<ellipse transform="matrix(0.1602 -0.9871 0.9871 0.1602 -25.3596 452.5933)" fill="#002138" cx="253.3" cy="241.2" rx="4.9" ry="4.9"/>
		<circle fill="#002138" cx="277.8" cy="241.2" r="4.9"/>
	</g>
	<g>
		<g>
			
				<circle fill="#FFBC00" stroke="#002138" stroke-width="1.5" stroke-linejoin="round" stroke-miterlimit="10" cx="277.7" cy="180.5" r="35"/>
		</g>
		
			<line fill="none" stroke="#002138" stroke-width="1.5" stroke-linecap="round" stroke-linejoin="round" stroke-miterlimit="10" x1="265.5" y1="193.3" x2="290" y2="193.3"/>
		<circle fill="#002138" cx="264.7" cy="174.1" r="4.9"/>
		<circle fill="#002138" cx="289.2" cy="174.1" r="4.9"/>
	</g>
	<g>
		
			<circle fill="#FFBC00" stroke="#002138" stroke-width="1.5" stroke-linejoin="round" stroke-miterlimit="10" cx="515.3" cy="215.2" r="35"/>
		
			<path fill="#FFFFFF" stroke="#002138" stroke-width="1.5" stroke-linecap="round" stroke-linejoin="round" stroke-miterlimit="10" d="
			M515.3,236.6c7.7,0,14-6.3,14-14h-28C501.3,230.3,507.5,236.6,515.3,236.6z"/>
		
			<path fill="#C63434" stroke="#002138" stroke-width="1.5" stroke-linecap="round" stroke-linejoin="round" stroke-miterlimit="10" d="
			M525.7,199.2c3.1,1.3,2.9,4.2,3,4.5c0.3-0.2,2-2.5,5.2-1.6c3.3,1,4.2,3.6,3.3,6c-1.7,4.7-12.5,6.6-12.5,6.6s-7-8.3-5.3-13.1
			C520.2,199.2,522.5,197.8,525.7,199.2z"/>
		
			<path fill="#C63434" stroke="#002138" stroke-width="1.5" stroke-linecap="round" stroke-linejoin="round" stroke-miterlimit="10" d="
			M504.9,199.2c-3.1,1.3-2.9,4.2-3,4.5c-0.3-0.2-2-2.5-5.2-1.6c-3.3,1-4.2,3.6-3.3,6c1.7,4.7,12.5,6.6,12.5,6.6s7-8.3,5.3-13.1
			C510.4,199.2,508.1,197.8,504.9,199.2z"/>
	</g>
	<g>
		
			<circle fill="#FFBC00" stroke="#002138" stroke-width="1.5" stroke-linejoin="round" stroke-miterlimit="10" cx="547.4" cy="187.8" r="35"/>
		
			<path fill="#FFFFFF" stroke="#002138" stroke-width="2" stroke-linecap="round" stroke-linejoin="round" stroke-miterlimit="10" d="
			M547.4,209.2c7.7,0,14-6.3,14-14h-28C533.4,202.9,539.6,209.2,547.4,209.2z"/>
		
			<path fill="none" stroke="#002138" stroke-width="1.5" stroke-linecap="round" stroke-linejoin="round" stroke-miterlimit="10" d="
			M554.4,186.4c0-2.9,2.4-5.2,5.2-5.2c2.9,0,5.2,2.4,5.2,5.2"/>
		<ellipse fill="#002138" cx="535.8" cy="183.8" rx="2.6" ry="4.6"/>
		
			<path fill="none" stroke="#002138" stroke-width="1.5" stroke-linecap="round" stroke-linejoin="round" stroke-miterlimit="10" d="
			M536.9,169.2c-1.7-0.1-4.2,0.8-6.6,2.4s-4.1,3.8-4.6,5.4"/>
		
			<path fill="none" stroke="#002138" stroke-width="1.5" stroke-linecap="round" stroke-linejoin="round" stroke-miterlimit="10" d="
			M570.3,180.8c-0.9-1.4-3-3-5.8-4s-5.4-1.2-7-0.7"/>
	</g>
	<g>
		<g>
			<g>
				
					<circle fill="#FFBC00" stroke="#002138" stroke-width="1.5" stroke-linejoin="round" stroke-miterlimit="10" cx="543.3" cy="249" r="35"/>
			</g>
			<circle fill="#002138" cx="530.3" cy="242.5" r="4.9"/>
			<circle fill="#002138" cx="554.8" cy="242.5" r="4.9"/>
		</g>
	</g>
	<circle fill="#002138" cx="543.2" cy="265.5" r="7.4"/>
	<g>
		
			<ellipse transform="matrix(0.1602 -0.9871 0.9871 0.1602 -13.0222 407.8943)" fill="#FFBC00" stroke="#002138" stroke-width="1.5" stroke-linejoin="round" stroke-miterlimit="10" cx="233.2" cy="211.6" rx="35" ry="35"/>
		<circle fill="#ED4C42" cx="210.4" cy="217.2" r="5.2"/>
		
			<ellipse transform="matrix(0.1602 -0.9871 0.9871 0.1602 0.514 435.0041)" fill="#ED4C42" cx="255.9" cy="217.2" rx="5.2" ry="5.2"/>
		
			<path fill="#FFFFFF" stroke="#002138" stroke-width="1.5" stroke-linecap="round" stroke-linejoin="round" stroke-miterlimit="10" d="
			M233.2,233c7.7,0,14-6.3,14-14h-28C219.2,226.7,225.5,233,233.2,233z"/>
		
			<path fill="none" stroke="#002138" stroke-width="1.5" stroke-linecap="round" stroke-linejoin="round" stroke-miterlimit="10" d="
			M240.2,206.7c0-2.9,2.4-5.2,5.2-5.2s5.2,2.4,5.2,5.2"/>
		
			<path fill="none" stroke="#002138" stroke-width="1.5" stroke-linecap="round" stroke-linejoin="round" stroke-miterlimit="10" d="
			M215.7,206.7c0-2.9,2.4-5.2,5.2-5.2s5.2,2.4,5.2,5.2"/>
	</g>
</g>
<g id="Safe_Zone">
</g>
</svg>
