<?xml version="1.0" encoding="UTF-8"?> <svg xmlns="http://www.w3.org/2000/svg" xmlns:xlink="http://www.w3.org/1999/xlink" id="图层_1" data-name="图层 1" viewBox="0 0 1920 1080"><defs><style>.cls-1{fill:url(#未命名的渐变_25);}.cls-2{fill:url(#未命名的渐变_25-2);}.cls-3{fill:url(#未命名的渐变_25-3);}.cls-4{fill:url(#未命名的渐变_25-4);}.cls-5{fill:url(#未命名的渐变_25-5);}</style><linearGradient id="未命名的渐变_25" x1="761.38" y1="263.66" x2="832.29" y2="263.66" gradientUnits="userSpaceOnUse"><stop offset="0" stop-color="#ff9b6a"></stop><stop offset="1" stop-color="#ff5151"></stop></linearGradient><linearGradient id="未命名的渐变_25-2" x1="569" y1="535.11" x2="939.76" y2="535.11" xlink:href="#未命名的渐变_25"></linearGradient><linearGradient id="未命名的渐变_25-3" x1="754.38" y1="772.67" x2="1198.84" y2="772.67" xlink:href="#未命名的渐变_25"></linearGradient><linearGradient id="未命名的渐变_25-4" x1="849.74" y1="964.76" x2="951.07" y2="964.76" xlink:href="#未命名的渐变_25"></linearGradient><linearGradient id="未命名的渐变_25-5" x1="969.99" y1="459.77" x2="1351" y2="459.77" xlink:href="#未命名的渐变_25"></linearGradient></defs><path class="cls-1" d="M832.29,185s-13,105.81,0,157.33c0,0-56.78-21.05-70.91-67C761.38,275.29,772.46,216.84,832.29,185Z"></path><path class="cls-2" d="M939.76,388.3S707.09,396.06,709.86,185c0,0-346.42,302.84,47.27,700.23,0,0,14.78-57.61,34-66.48,0,0-172.84-110.79-101.93-317.61C689.18,501.13,884.36,563.64,939.76,388.3Zm-180.41-3.88c34.35,0,33.24,38.41,33.24,38.41-32.5-29.17-66.48,0-66.48,0S725,384.42,759.35,384.42Z"></path><path class="cls-3" d="M848,517.38c28.8,70.17,15.69,189.09-20,271.82-39.13,90.83-73.46,181.34-73.66,236.36h38.21s40.25-151,187.61-227.5c0,0-5.17,133.7,144.78,113.75,0,0-25.49,49.68-20.69,116.15l39.15-2.4s-2.21-79.4,55.4-130.74c0,0-48.75,4.44-48.75-101.93C1150.09,583.12,966.91,667.32,848,517.38Z"></path><path class="cls-4" d="M890.18,901.56s-29.91,30.89-40.44,51c0,0,51.38,28.3,66.48,75.43h34.65S957.77,981.48,890.18,901.56Z"></path><path class="cls-5" d="M1274.92,52s-357.5,80.1-298.31,379.66c45,227.5,204.5,153.63,204.5,355.28,0,72.76,8.87,80.51,28.07,80.51S1351,799.54,1351,648.86C1351,449.42,1166.34,387.19,1274.92,52ZM1118.33,366.7C1061.08,434.65,1064.41,510,1064.41,510,970,390.7,1051.11,192.38,1202.53,137c-41.36,216.05,24.19,291.21,24.19,291.21C1169.48,430.4,1118.33,366.7,1118.33,366.7Z"></path></svg> 