<?xml version="1.0" encoding="UTF-8"?> <!-- Generator: Adobe Illustrator 26.0.0, SVG Export Plug-In . SVG Version: 6.00 Build 0) --> <svg xmlns:vectornator="http://vectornator.io/" xmlns="http://www.w3.org/2000/svg" xmlns:xlink="http://www.w3.org/1999/xlink" version="1.1" id="图层_1" x="0px" y="0px" viewBox="0 0 822.8 517.8" style="enable-background:new 0 0 822.8 517.8;" xml:space="preserve"> <style type="text/css"> .st0{opacity:0.5211;} .st1{fill:url(#SVGID_1_);stroke:#0EA0FF;stroke-width:4.2993;stroke-linecap:round;stroke-linejoin:round;stroke-miterlimit:7.2562;} .st2{fill:#3B4B5F;stroke:#0EA0FF;stroke-width:4.2993;stroke-linecap:round;stroke-linejoin:round;stroke-miterlimit:7.2562;} .st3{fill:#E4F9FF;stroke:#0EA0FF;stroke-width:4.2993;stroke-linecap:round;stroke-linejoin:round;stroke-miterlimit:7.2562;} .st4{stroke:#0EA0FF;stroke-width:4.2993;stroke-linecap:round;stroke-linejoin:round;stroke-miterlimit:7.2562;} .st5{fill:none;stroke:#0EA0FF;stroke-width:4.2993;stroke-linecap:round;stroke-linejoin:round;stroke-miterlimit:7.2562;} .st6{fill:url(#SVGID_00000129171773180205214100000003727762604186698126_);stroke:#0EA0FF;stroke-width:4.2993;stroke-linecap:round;stroke-linejoin:round;stroke-miterlimit:7.2562;} .st7{fill:url(#SVGID_00000066476989126366405430000017710517548504463777_);stroke:#0EA0FF;stroke-width:4.2993;stroke-linecap:round;stroke-linejoin:round;stroke-miterlimit:7.2562;} .st8{fill:url(#SVGID_00000182529651445409294420000012005835374614578077_);stroke:#0EA0FF;stroke-width:4.2993;stroke-linecap:round;stroke-linejoin:round;stroke-miterlimit:7.2562;} </style> <g id="layer" vectornator:layerName="layer" class="st0"> <g transform="matrix(1.20512 0 0 1.20512 -250.222 -71.3)"> </g> <g transform="matrix(0.709986 0 0 0.709986 342.59 120.125)"> </g> </g> <g id="layer_3" vectornator:layerName="layer"> <linearGradient id="SVGID_1_" gradientUnits="userSpaceOnUse" x1="-634.7537" y1="438.1003" x2="-417.5661" y2="438.1003" gradientTransform="matrix(1.8141 0 0 1.8141 1365.9067 -561.3379)"> <stop offset="0" style="stop-color:#FFFFFF"></stop> <stop offset="1" style="stop-color:#6FEDFF"></stop> </linearGradient> <path class="st1" d="M214.4,232.2c0-40.6,12.3-78.3,33.3-109.7c13.7-20.4,39.6-18.6,51-1c11.2,17.3,45.7,7.3,31.1-22.6 c-15.5-31.8,7.5-61.8,40.1-48.4c14,5.8,23.6,28,13.8,47.9c-8.8,17.8-4.1,37,11.4,47c39.7,25.6,89.4-25.2,47.9-64.8 c-10.7-10.2-26-15.3-20-31.9c4.4-12.1,19-11.1,19.9-11c93.8,15.1,165.5,96.4,165.5,194.5c0,108.8-88.2,197-197,197 C302.6,429.1,214.4,340.9,214.4,232.2z"></path> <path class="st2" d="M440.8,178.7c0,0,22.9,16.3,33.8-24.6C481.9,126.5,511,128,511,128c-16.1-7.9-28.9-23.8-23.8-43.1 C493.6,60,462.9,42,462.9,42c83.8,22.7,145.4,99.2,145.4,190.2c0,70.5-37,132.4-92.7,167.2c-30.2,18.9,53.5-127.6,57.1-179.9 c3.7-52.8-40.2-54.2-56.8-40.2C492,199.4,459.7,207.7,440.8,178.7z"></path> <path class="st3" d="M214.4,232.2c0-19.8,2.9-38.9,8.3-56.9c0,0,99.1-31.1,167.7,77s21,176.9,21,176.9 C302.6,429.1,214.4,340.9,214.4,232.2z"></path> <path class="st4" d="M341.1,299.9C350.8,153.7,222.5,176,222.5,176C354.3,101.2,366,228.7,423,251.9 c130.1,52.8,176.6-78.1,176.6-78.1c5.7,18.4,8.8,38,8.8,58.3c0,71.2-37.8,133.6-94.4,168.2c0,0-7.3,2.1,14.1,29.8 c21.4,27.8,45.4,33.2,45.4,33.2C426.1,508.6,334,408.4,341.1,299.9z"></path> <path class="st4" d="M418.1,480.1c-37.8-21.5-37.3-53.4-37.3-53.4c-44.1-6.9-83.3-28.4-112.6-59.4 C268.1,367.4,283.6,483.6,418.1,480.1z"></path> <path class="st5" d="M245.6,174c0,0-62.9,162.8,121.8,229.3"></path> <path class="st5" d="M262,179.3c0,0-14.7,43.7-3.8,92.5c8.7,39,33.9,81.2,96,106.9"></path> <path class="st5" d="M279.1,182c0,0-10.9,38.4-2.8,81.1c6.5,34.2,25,71.2,70.8,93.7"></path> <path class="st5" d="M298.4,192.7c0,0-6.9,30.1-1.8,63.7c4.1,26.9,15.8,55.9,44.8,73.6"></path> <path class="st5" d="M316.9,205.9c0,0-3.9,21-1,44.4c2.3,18.7,9.1,39,25.7,51.3"></path> <linearGradient id="SVGID_00000095316754486987137750000006534087456603877280_" gradientUnits="userSpaceOnUse" x1="-584.6617" y1="371.7203" x2="-573.0518" y2="371.7203" gradientTransform="matrix(1.8141 0 0 1.8141 1365.9067 -561.3379)"> <stop offset="0" style="stop-color:#FFFFFF"></stop> <stop offset="1" style="stop-color:#6FEDFF"></stop> </linearGradient> <path style="fill:url(#SVGID_00000095316754486987137750000006534087456603877280_);stroke:#0EA0FF;stroke-width:4.2993;stroke-linecap:round;stroke-linejoin:round;stroke-miterlimit:7.2562;" d=" M305.3,113c0-5.8,4.7-10.5,10.5-10.5s10.5,4.7,10.5,10.5s-4.7,10.5-10.5,10.5S305.3,118.8,305.3,113z"></path> <linearGradient id="SVGID_00000155862697044680108940000018147975503928457349_" gradientUnits="userSpaceOnUse" x1="-536.4681" y1="339.473" x2="-526.0341" y2="339.473" gradientTransform="matrix(1.8141 0 0 1.8141 1365.9067 -561.3379)"> <stop offset="0" style="stop-color:#FFFFFF"></stop> <stop offset="1" style="stop-color:#6FEDFF"></stop> </linearGradient> <path style="fill:url(#SVGID_00000155862697044680108940000018147975503928457349_);stroke:#0EA0FF;stroke-width:4.2993;stroke-linecap:round;stroke-linejoin:round;stroke-miterlimit:7.2562;" d=" M392.7,54.5c0-5.2,4.2-9.5,9.5-9.5c5.2,0,9.5,4.2,9.5,9.5c0,5.2-4.2,9.5-9.5,9.5S392.7,59.7,392.7,54.5z"></path> <linearGradient id="SVGID_00000155136805798979757710000012229462057833272451_" gradientUnits="userSpaceOnUse" x1="-535.5309" y1="372.7128" x2="-508.595" y2="372.7128" gradientTransform="matrix(1.8141 0 0 1.8141 1365.9067 -561.3379)"> <stop offset="0" style="stop-color:#FFFFFF"></stop> <stop offset="1" style="stop-color:#6FEDFF"></stop> </linearGradient> <path style="fill:url(#SVGID_00000155136805798979757710000012229462057833272451_);stroke:#0EA0FF;stroke-width:4.2993;stroke-linecap:round;stroke-linejoin:round;stroke-miterlimit:7.2562;" d=" M394.4,114.8c0-13.5,10.9-24.4,24.4-24.4s24.4,10.9,24.4,24.4s-10.9,24.4-24.4,24.4C405.3,139.3,394.4,128.3,394.4,114.8z"></path> </g> </svg> 